<?xml version="1.0" standalone="no"?>
<!DOCTYPE svg PUBLIC "-//W3C//DTD SVG 20010904//EN"
 "http://www.w3.org/TR/2001/REC-SVG-20010904/DTD/svg10.dtd">
<svg version="1.0" xmlns="http://www.w3.org/2000/svg"
 width="500.000000pt" height="500.000000pt" viewBox="0 0 500.000000 500.000000"
 preserveAspectRatio="xMidYMid meet">
<metadata>
Created by potrace 1.11, written by Peter Selinger 2001-2013
</metadata>
<g transform="translate(0.000000,500.000000) scale(0.100000,-0.100000)"
fill="#000000" stroke="none">
<path d="M2329 4936 c-2 -2 -42 -6 -88 -10 -46 -3 -86 -8 -90 -10 -3 -2 -28
-7 -56 -10 -27 -4 -66 -11 -85 -16 -19 -5 -47 -11 -62 -14 -124 -21 -356 -104
-524 -187 -617 -303 -1078 -852 -1267 -1509 -31 -108 -44 -164 -72 -325 -15
-88 -19 -158 -20 -340 0 -200 4 -258 31 -430 11 -71 62 -270 94 -364 286 -840
1020 -1466 1895 -1615 146 -25 171 -27 380 -31 182 -3 253 2 435 29 356 52
775 232 1074 461 395 304 673 690 840 1167 15 42 29 85 31 95 1 10 12 54 24
98 51 201 66 337 65 595 0 172 -8 276 -28 387 -2 10 -7 38 -11 63 -4 25 -18
88 -32 140 -155 591 -503 1079 -1014 1422 -289 194 -681 344 -1006 384 -18 2
-50 7 -70 10 -41 6 -438 15 -444 10z"/>
</g>
</svg>
