<?xml version="1.0" standalone="no"?>
<!DOCTYPE svg PUBLIC "-//W3C//DTD SVG 20010904//EN"
 "http://www.w3.org/TR/2001/REC-SVG-20010904/DTD/svg10.dtd">
<svg version="1.0" xmlns="http://www.w3.org/2000/svg"
 width="500.000000pt" height="500.000000pt" viewBox="0 0 500.000000 500.000000"
 preserveAspectRatio="xMidYMid meet">
<metadata>
Created by potrace 1.11, written by Peter Selinger 2001-2013
</metadata>
<g transform="translate(0.000000,500.000000) scale(0.100000,-0.100000)"
fill="#000000" stroke="none">
<path d="M2305 4934 c-614 -64 -1118 -298 -1530 -709 -384 -384 -618 -859
-696 -1415 -18 -125 -18 -496 0 -615 45 -307 128 -571 256 -811 64 -122 134
-234 145 -234 17 0 120 97 176 165 184 225 382 618 534 1060 129 376 222 755
222 908 0 47 4 60 21 72 29 20 84 19 126 -3 34 -17 36 -20 78 -182 86 -326
181 -777 199 -940 3 -36 9 -69 12 -74 11 -19 94 253 237 779 140 517 195 684
244 754 43 59 48 59 199 -19 75 -39 143 -74 150 -78 10 -7 7 -19 -12 -53 -13
-24 -31 -69 -40 -99 -23 -80 -53 -293 -66 -460 -5 -80 -12 -168 -15 -195 -2
-28 -7 -205 -11 -394 l-7 -344 -44 -80 c-49 -89 -146 -234 -190 -285 l-28 -34
-36 37 c-64 63 -74 115 -74 370 0 223 11 635 20 748 8 95 -7 52 -80 -233 -138
-532 -185 -690 -217 -722 -17 -17 -28 -19 -66 -13 -72 11 -154 45 -188 79
l-31 31 -7 220 c-7 230 -31 517 -44 541 -5 8 -13 -50 -20 -133 -35 -427 -113
-869 -197 -1118 -40 -118 -125 -291 -178 -361 -119 -157 -239 -179 -506 -94
-35 11 -66 19 -68 17 -6 -7 129 -160 218 -248 367 -363 837 -594 1369 -676
160 -24 520 -24 680 0 535 82 1002 314 1374 681 389 384 630 871 707 1426 18
123 18 487 0 610 -53 388 -179 724 -388 1038 -385 580 -984 960 -1683 1067
-101 16 -459 28 -545 19z m1874 -940 c80 -42 147 -77 149 -79 2 -1 -8 -19 -21
-38 -33 -49 -62 -162 -86 -337 -31 -224 -41 -402 -48 -825 -6 -430 1 -511 50
-616 15 -29 25 -54 24 -54 -31 -18 -111 -49 -154 -60 -114 -30 -187 -15 -240
49 -42 52 -53 94 -60 231 -5 110 10 684 23 863 3 50 2 72 -4 62 -5 -8 -42
-141 -82 -295 -97 -375 -167 -627 -191 -682 l-20 -46 -69 6 c-79 7 -169 44
-200 84 -17 22 -20 41 -20 142 0 195 -36 641 -51 641 -3 0 -10 -35 -13 -77
-28 -323 -69 -616 -122 -863 -78 -363 -186 -615 -316 -735 -121 -113 -214
-112 -549 2 l-168 57 57 28 c253 122 541 604 778 1302 122 360 201 692 207
876 2 39 6 47 30 58 32 15 103 9 131 -11 17 -13 23 -33 91 -302 75 -295 121
-512 156 -742 13 -83 27 -149 31 -147 12 8 83 238 168 544 238 864 273 969
336 1019 15 12 29 21 32 21 3 0 71 -34 151 -76z"/>
</g>
</svg>
