<svg xmlns="http://www.w3.org/2000/svg" viewBox="0 0 32 32">
  <g transform="translate(-.087 -1045.418) scale(1.0234)">
    <path fill="#fff" fill-rule="evenodd" stroke="#4d4d4d" stroke-width="1.379" d="M8.046 1030.227v-2.577c-8.37-2.605-11.08 11.05.377 12.94l-3.17-.634-1.6 9.83c7.725 1.463 16.787 2.154 23.173-.15l-.753-9.435-2.888.26c9.716-.53 9.963-10.753.756-12.684l-.116 2.99c.474-11.696-16.217-10.973-15.776-.537z" stroke-linejoin="round"/>
    <ellipse cx="158.148" cy="1029.305" fill="#666" transform="matrix(.9864 .1642 -.1417 .99 0 0)" ry="2.897" rx=".799"/>
    <ellipse cx="-47.576" cy="1043.552" fill="#666" rx=".798" ry="2.901" transform="matrix(.997 -.0757 .065 .998 0 0)"/>
    <ellipse cx="13.155" cy="1044.919" fill="#666" transform="rotate(-.144) skewX(-.02)" ry="2.902" rx=".798"/>
    <path fill="#b3b3b3" fill-rule="evenodd" d="M3.372 1028.866c-3.645 6.706 2.275 9.417 5.333 11.082-6.247-.206-9.773-7.582-5.333-11.082zm4.495 20.89c-1.492-.394-1.313-7.954-.003-8.54-.696-.17-1.374-.31-2.082-.436l-1.365 8.432c1.216.225 2.333.385 3.45.545z"/>
  </g>
</svg>
