<svg id="Layer_1" data-name="Layer 1" xmlns="http://www.w3.org/2000/svg" viewBox="0 0 176.25 176.25"><defs><style>.cls-1{fill:#9c9;}.cls-2{font-size:15.69px;font-family:CoolveticaRg-Regular, Coolvetica;letter-spacing:0.05em;}.cls-2,.cls-3,.cls-5{fill:#fff;}.cls-4{fill:none;}.cls-4,.cls-5{stroke:#fff;stroke-miterlimit:10;stroke-width:0.5px;}</style></defs><title>NewLogoWeb</title><path class="cls-1" d="M90,1.88A88.11,88.11,0,1,0,178.13,90,88.12,88.12,0,0,0,90,1.88Z" transform="translate(-1.88 -1.88)"/><text class="cls-2" transform="translate(37.75 148.41)">munchie mart</text><ellipse class="cls-1" cx="137.06" cy="118.25" rx="1.94" ry="1.4" transform="translate(-35.75 175.95) rotate(-60)"/><ellipse class="cls-1" cx="141.26" cy="114.18" rx="2.04" ry="1.53"/><path class="cls-1" d="M144.15,113.5c1-1,3.07,0,3.07,0,2,1-.51,4.6-.51,4.6s-2.05-1-2.05-2S143.69,114,144.15,113.5Z" transform="translate(-1.88 -1.88)"/><polygon class="cls-1" points="138.19 118.78 139.21 115.71 142.28 113.67 146.36 111.63 147.39 116.73 138.19 118.78"/><path class="cls-3" d="M161.17,46l-2.9-2.45c-1-.84-2-1.62-3-2.32-.83-.66-1.6-1.26-2.3-1.79s-1.25-1-1.66-1.25l-.32.06q-2.12.34-4.39,4.29a48.93,48.93,0,0,0-3.38,5.76q-2,3.78-4.25,8.44t-4.78,9.83q-2.51,5.17-4.9,10.07t-4.62,9.15q-2.22,4.26-4,6.93.38-6.24.4-12.41t-.18-12c-.14-3.88-.33-7.6-.59-11.17s-.5-6.85-.7-9.85a5.47,5.47,0,0,0-1.3-1,6.88,6.88,0,0,0-2-.81,4.3,4.3,0,0,0-2,0,1.55,1.55,0,0,0-1.21,1.22,3.11,3.11,0,0,1,0,.76A73.06,73.06,0,0,1,109.42,58q-2.88,6.87-7.15,14.88T92.76,89.2a140.6,140.6,0,0,1-10.91,15,74.14,74.14,0,0,1-11.32,11.18Q64.86,119.82,59.8,120A37.07,37.07,0,0,1,65,122.73q2.77,1.71,5.68,3.24a40.83,40.83,0,0,0,5.66,2.48,10.53,10.53,0,0,0,5.18.56,13.36,13.36,0,0,0,6.82-3.67,41.47,41.47,0,0,0,6.41-7.82,81,81,0,0,0,5.8-10.81q2.75-6.09,5.12-12.7c1.59-4.42,3.06-8.86,4.42-13.35s2.57-8.76,3.63-12.84a47.29,47.29,0,0,1-.16,5.61c-.18,2.45-.43,5-.77,7.82s-.72,5.51-1.14,8.25-.83,5.09-1.23,7a3,3,0,0,0,1,2.76,12.66,12.66,0,0,0,3.1,2.42A16.44,16.44,0,0,0,118,103.2c1.1.33,1.8.32,2.11,0a45,45,0,0,0,4-6.88q2.35-4.77,5-10.3t5-10.79q2.43-5.28,4.2-8.38-2.07,7.82-3.81,15.74c-1.15,5.28-1.7,10.17-3.19,14.22-1.21,3.3-1.52,11.41.19,14.65.65,1.24,2.64,2.35,4.93,2.66s5.4-.11,9.33-1.26a4.76,4.76,0,0,1-1-2.23,23.52,23.52,0,0,1-.38-3.35,25.44,25.44,0,0,1,.15-4q.24-2.15.63-4.38c.52-3,1.15-6.29,1.89-9.95s1.52-7.35,2.35-11.06,1.74-7.35,2.71-10.9,2-6.8,3-9.75a54.43,54.43,0,0,1,3-7.37A9.17,9.17,0,0,1,161.17,46Z" transform="translate(-1.88 -1.88)"/><path class="cls-4" d="M107.14,33.31c-1-.71-2-1.44-3-2.2S102,29.66,101,29l-2.41-1.59c-.74-.47-1.32-.84-1.75-1.1l-.31.08c-1.37.34-2.7,1.86-4,4.58a50.2,50.2,0,0,0-2.9,6q-1.66,3.9-3.54,8.67t-4,10.09L78,66.06q-2,5-3.86,9.4c-1.24,2.93-2.37,5.32-3.37,7.16q-.11-6.2-.57-12.3T69.13,58.48q-.64-5.73-1.44-11c-.54-3.5-1-6.73-1.46-9.68a5.64,5.64,0,0,0-1.37-.92,7.17,7.17,0,0,0-2-.65,4.56,4.56,0,0,0-2,.11,1.52,1.52,0,0,0-1.09,1.31,3.15,3.15,0,0,1,.07.74,71.11,71.11,0,0,1-2.9,10.86q-2.31,7-5.9,15.26T42.89,81.36a141.78,141.78,0,0,1-9.61,15.73A73.15,73.15,0,0,1,23,109q-5.25,4.78-10.25,5.36a37.35,37.35,0,0,1,5.37,2.28c1.91,1,3.87,1.91,5.86,2.76a40.48,40.48,0,0,0,5.79,2,10.57,10.57,0,0,0,5.16.15,13.17,13.17,0,0,0,6.46-4.16,40.86,40.86,0,0,0,5.72-8.22A80.15,80.15,0,0,0,52,98.06q2.24-6.23,4.08-13t3.33-13.53q1.49-6.81,2.59-13a48.48,48.48,0,0,1,.28,5.56q0,3.65-.16,7.79t-.48,8.24c-.2,2.75-.43,5.09-.68,7a3,3,0,0,0,1.2,2.66A12.7,12.7,0,0,0,65.38,92a16.18,16.18,0,0,0,3.52,1.21c1.11.24,1.8.18,2.08-.18A44.91,44.91,0,0,0,74.36,86q2-4.9,4.12-10.56t4.15-11.06c1.33-3.61,2.5-6.47,3.5-8.61q-1.44,7.88-2.54,15.85t-2,14.3a43.77,43.77,0,0,0-.53,8.7,9.85,9.85,0,0,0,1.85,5.77,4.93,4.93,0,0,0,.52.5q4.25-5.45,8.25-11.76c1.49-2.35,2.91-4.69,4.28-7q.27-2.49.6-5.22.67-5.52,1.47-11.11t1.83-11q1-5.37,2.16-9.86a55,55,0,0,1,2.41-7.52A9.1,9.1,0,0,1,107.14,33.31Z" transform="translate(-1.88 -1.88)"/><path class="cls-5" d="M107.14,33.31c-1-.71-2-1.44-3-2.2S102,29.66,101,29l-2.41-1.59c-.74-.47-1.32-.84-1.75-1.1l-.31.08c-1.37.34-2.7,1.86-4,4.58a50.2,50.2,0,0,0-2.9,6q-1.66,3.9-3.54,8.67t-4,10.09L78,66.06q-2,5-3.86,9.4c-1.24,2.93-2.37,5.32-3.37,7.16q-.11-6.2-.57-12.3T69.13,58.48q-.64-5.73-1.44-11c-.54-3.5-1-6.73-1.46-9.68a5.64,5.64,0,0,0-1.37-.92,7.17,7.17,0,0,0-2-.65,4.56,4.56,0,0,0-2,.11,1.52,1.52,0,0,0-1.09,1.31,3.15,3.15,0,0,1,.07.74,71.11,71.11,0,0,1-2.9,10.86q-2.31,7-5.9,15.26T42.89,81.36a141.78,141.78,0,0,1-9.61,15.73A73.15,73.15,0,0,1,23,109q-5.25,4.78-10.25,5.36a37.35,37.35,0,0,1,5.37,2.28c1.91,1,3.87,1.91,5.86,2.76a40.48,40.48,0,0,0,5.79,2,10.57,10.57,0,0,0,5.16.15,13.17,13.17,0,0,0,6.46-4.16,40.86,40.86,0,0,0,5.72-8.22A80.15,80.15,0,0,0,52,98.06q2.24-6.23,4.08-13t3.33-13.53q1.49-6.81,2.59-13a48.48,48.48,0,0,1,.28,5.56q0,3.65-.16,7.79t-.48,8.24c-.2,2.75-.43,5.09-.68,7a3,3,0,0,0,1.2,2.66A12.7,12.7,0,0,0,65.38,92a16.18,16.18,0,0,0,3.52,1.21c1.11.24,1.8.18,2.08-.18A44.91,44.91,0,0,0,74.36,86q2-4.9,4.12-10.56t4.15-11.06c1.33-3.61,2.5-6.47,3.5-8.61q-1.44,7.88-2.54,15.85t-2,14.3a43.77,43.77,0,0,0-.53,8.7,9.85,9.85,0,0,0,1.85,5.77,4.93,4.93,0,0,0,.52.5q4.25-5.45,8.25-11.76c1.49-2.35,2.91-4.69,4.28-7q.27-2.49.6-5.22.67-5.52,1.47-11.11t1.83-11q1-5.37,2.16-9.86a55,55,0,0,1,2.41-7.52A9.1,9.1,0,0,1,107.14,33.31Z" transform="translate(-1.88 -1.88)"/><path class="cls-1" d="M140.25,102.58a1.09,1.09,0,0,0-1.08,1.11,1.08,1.08,0,1,0,1.08-1.11Z" transform="translate(-1.88 -1.88)"/><path class="cls-1" d="M140.76,107.93a1.08,1.08,0,0,0,0,2.15,1.12,1.12,0,0,0,1.12-1A1.09,1.09,0,0,0,140.76,107.93Z" transform="translate(-1.88 -1.88)"/><path class="cls-1" d="M134.59,106.59a1.09,1.09,0,0,0,0,2.17,1.09,1.09,0,0,0,0-2.17Z" transform="translate(-1.88 -1.88)"/><path class="cls-1" d="M136.17,103.63a.55.55,0,0,0-.56.53.54.54,0,1,0,1.08,0A.56.56,0,0,0,136.17,103.63Z" transform="translate(-1.88 -1.88)"/><path class="cls-1" d="M138.39,106.64a.56.56,0,0,0-.56.54.54.54,0,0,0,.53.55.55.55,0,0,0,0-1.09Z" transform="translate(-1.88 -1.88)"/><path class="cls-1" d="M134,110.21a.6.6,0,0,0-.5.55.57.57,0,0,0,.56.54.52.52,0,0,0,.51-.54A.52.52,0,0,0,134,110.21Z" transform="translate(-1.88 -1.88)"/><path class="cls-1" d="M139.55,115.54a22.45,22.45,0,0,1,6.13-2c.4,0,0,0,1-1,0,0-2.05-2-1,0,.33.64,0,1,0-4.09,0,2,.94.4,0,0-1.16-.49-.55,4.69-3.06,3.07-1.62-1-2,2-3.07,2-.78,0-1.06-1.56-3.06-1-4.27,1.15-1.68,4.52,1,4.09a1,1,0,0,0,.71-.39c.19-.36-.14-.71.05-1.25a1.17,1.17,0,0,1,.26-.41C138.8,114.25,139.25,115.78,139.55,115.54Z" transform="translate(-1.88 -1.88)"/><path class="cls-1" d="M130.36,109.41s1.63-3.31,2-4.08a11.87,11.87,0,0,1,1.85-2.34,9.68,9.68,0,0,1,2.16-1.25,7.2,7.2,0,0,1,2.79-.48,7.64,7.64,0,0,1,5.45,2.47,8.19,8.19,0,0,1,.93,1.26c.06-.53.13-1.06.2-1.6a8.51,8.51,0,0,0-2.12-1.89c-2.06-1.28-5.8-1.89-8.19-.26a12.09,12.09,0,0,0-3.12,2.89,26.48,26.48,0,0,0-2,4.26C130.41,108.27,130.28,109.48,130.36,109.41Z" transform="translate(-1.88 -1.88)"/><path class="cls-1" d="M144.48,110.88c.18-1.47-.8-2.52-.84-3.51a8,8,0,0,1,1-3.07l4.09,8.18S144.34,112,144.48,110.88Z" transform="translate(-1.88 -1.88)"/></svg>