<?xml version="1.0" encoding="utf-8"?>
<!-- Generator: Adobe Illustrator 23.0.1, SVG Export Plug-In . SVG Version: 6.00 Build 0)  -->
<svg version="1.1" id="Layer_1" xmlns="http://www.w3.org/2000/svg" xmlns:xlink="http://www.w3.org/1999/xlink" x="0px" y="0px"
	 viewBox="0 0 1000 1000" style="enable-background:new 0 0 1000 1000;" xml:space="preserve">
<style type="text/css">
	.st0{fill:#FEFEFE;}
	.st1{fill:#C6C6C6;}
	.st2{fill:#030303;}
	.st3{fill:#A2D198;}
	.st4{fill:#FBFBFB;}
</style>
<g>
	<g>
		<path class="st0" d="M483.38,975.27c-152.47,0-304.95,0-457.42,0c0-316.07,0-632.15,0-948.22c316.9,0,633.8,0,950.69,0
			c0,316.07,0,632.15,0,948.22c-152.89,0-305.77,0-458.66,0c0.05-0.34,0.07-0.67,0.06-1.01c23.85-2.61,47.98-3.71,71.5-8.11
			c79.02-14.76,149.77-47.97,212.01-98.95c52.42-42.94,93.94-94.76,124-155.45c34.26-69.17,50.57-142.44,48.92-219.77
			c-0.82-38.38-5.89-76.03-15.91-113.01c-22.63-83.5-65.09-155.38-126.99-215.8c-43.88-42.83-94.21-75.83-150.94-99.02
			c-61.97-25.33-126.41-36.81-193.38-34.93c-33.61,0.94-66.76,4.97-99.27,13.13c-98.64,24.75-181.62,75.4-247.69,152.83
			C69.54,278.11,32.38,374.62,27.38,483.35c-2.12,46.19,2.93,91.86,14.71,136.64c25.7,97.66,77.16,179.33,154.51,244.03
			c82.82,69.28,178.77,105.68,286.73,110.22C483.35,974.59,483.37,974.93,483.38,975.27z"/>
		<path class="st1" d="M518.06,974.26c0.01,0.34-0.01,0.68-0.06,1.01c-11.54,0-23.08,0-34.62,0c-0.01-0.34-0.03-0.69-0.06-1.03
			C494.9,974.25,506.48,974.26,518.06,974.26z"/>
		<path class="st2" d="M518.06,974.26c-11.58-0.01-23.16-0.01-34.74-0.02c-107.96-4.54-203.91-40.94-286.73-110.22
			c-77.35-64.7-128.81-146.37-154.51-244.03C30.3,575.2,25.26,529.53,27.38,483.35c5-108.73,42.16-205.24,112.93-288.17
			C206.38,117.75,289.36,67.1,388,42.35c32.51-8.16,65.66-12.18,99.27-13.13c66.97-1.88,131.41,9.6,193.38,34.93
			c56.74,23.19,107.07,56.19,150.94,99.02c61.9,60.42,104.36,132.3,126.99,215.8c10.02,36.98,15.09,74.64,15.91,113.01
			c1.65,77.33-14.66,150.61-48.92,219.77c-30.06,60.69-71.58,112.51-124,155.45c-62.24,50.98-132.98,84.19-212.01,98.95
			C566.04,970.55,541.91,971.65,518.06,974.26z M864.72,235.21c-2.08-1.23-3.58-2.22-5.17-3.06c-15.28-8.03-30.45-16.29-45.92-23.96
			c-8.3-4.11-12.8-2.53-17.7,5.27c-2.72,4.33-5.44,8.87-6.99,13.69c-10.56,32.83-21.34,65.62-31.05,98.71
			c-16.61,56.58-32.47,113.39-48.71,170.08c-0.71,2.47-2.1,4.74-3.18,7.1c-3.59-14.7-5.91-28.91-8.24-43.12
			c-9.3-56.69-23.86-112.16-38.24-167.7c-2.92-11.26-12.71-17.2-23.07-17.6c-9.76-0.38-13.92,4.45-14.17,14.14
			c-0.2,7.78-0.91,15.62-2.24,23.29c-13.76,78.98-38.04,154.75-69.91,228.2c-18.21,41.98-38.12,83.01-67.04,118.94
			c-15.22,18.91-31.49,36.56-55.28,44.94c-1.48,0.52-2.9,1.21-5.14,2.15c3.41,1.09,5.9,1.91,8.41,2.69
			c25.09,7.81,50.01,16.29,75.34,23.22c20.56,5.62,39.84,1.48,55.41-13.85c6.25-6.15,11.8-13.27,16.56-20.65
			c20.13-31.2,30.84-66.24,39.49-101.86c14.11-58.13,20.36-117.5,26.3-176.88c0.17-1.69,1.52-3.27,2.31-4.9
			c0.87,1.57,2.35,3.08,2.53,4.72c1.39,12.87,2.93,25.74,3.65,38.66c1.5,26.7,2.49,53.43,3.76,80.15
			c0.45,9.51,4.84,16.92,13.86,20.05c10.61,3.68,21.58,6.39,32.51,9.07c4.68,1.15,8.58-1.09,10.49-5.63
			c2.23-5.29,4.49-10.63,6.01-16.15c10.88-39.42,21.64-78.88,32.31-118.36c4.43-16.37,8.57-32.81,12.84-49.22
			c1.65,2.34,2.21,4.66,2.11,6.94c-0.58,13.57-1.43,27.12-1.99,40.69c-1.3,31.65-2.77,63.31-3.62,94.97
			c-0.51,18.91-0.75,37.97,4.38,56.43c4.77,17.13,16.6,26.75,33.88,27.33c17.17,0.57,32.52-6.2,47.56-13.55
			c3.62-1.77,1.52-4.09,0.54-6.67c-3.74-9.92-8.96-19.77-10.18-30.05c-2.2-18.53-2.37-37.34-2.6-56.04
			c-0.84-68.21,1.74-136.25,11.11-203.91c2.37-17.13,4.68-34.3,13.67-49.62C860.97,241.08,862.74,238.38,864.72,235.21z
			 M396.56,565.48c-0.78-0.12-1.57-0.24-2.35-0.36c-0.88-6.51-1.62-13.03-2.65-19.51c-10.28-64.63-25.31-128.22-42.22-191.38
			c-3.28-12.25-16.1-19.46-28.32-16.1c-6.76,1.86-8.95,5.2-8.93,12.02c0.01,6.35,0.02,12.81-1.08,19.02
			c-17.66,99.56-48.82,194.62-95.22,284.57c-19.91,38.6-41.98,75.56-77.31,102.57c-1.37,1.05-2.67,4.42-2.01,5.54
			c6.63,11.33,14.18,21.81,28.09,25.12c6.59,1.57,13.05,3.79,19.7,4.97c10.48,1.86,21.06,4.22,31.62,4.34
			c20.58,0.25,34.96-11.42,46.49-27.27c14.15-19.45,24.37-40.91,31.87-63.65c22.19-67.25,31.23-136.96,38.3-207.01
			c1.06-10.54,1.53-21.15,2.27-31.72c2.09,1.5,3.07,3.22,3.3,5.02c1.14,9.19,2.58,18.38,3.02,27.61
			c1.53,31.62,2.87,63.24,3.92,94.88c0.42,12.56,5.15,21.98,17.15,26.63c7.63,2.96,15.45,5.6,23.37,7.64
			c12.44,3.19,15.93,1.06,20.48-11.09c0.29-0.77,0.55-1.54,0.77-2.33c13.57-49.51,27.14-99.02,40.68-148.54
			c2.26-8.26,4.38-16.55,6.57-24.82c0.5,0.07,0.99,0.13,1.49,0.2c0,8.12,0.25,16.26-0.04,24.37c-1.12,31.25-2.47,62.49-3.64,93.74
			c-0.9,24.04-2.69,48.11,1.82,72.01c1.91,10.11,5.72,19.27,13.41,26.47c5.32,4.98,8.33,4.94,12.49-0.95
			c8.91-12.59,17.86-25.16,26.32-38.05c8.86-13.51,15.79-28.12,17.55-44.3c1.31-12,0.95-24.22,0.88-36.34
			c-0.31-57.68,1.78-115.23,9.93-172.4c3.26-22.87,4.57-46.45,18.93-66.27c0.54-0.75-0.66-3.94-1.82-4.56
			c-15.21-8.11-30.52-16.05-45.88-23.86c-10.23-5.2-14.93-4.37-20.09,5.98c-6.47,12.98-12.84,26.3-16.87,40.17
			c-16.97,58.36-32.86,117.03-49.57,175.46C412.04,517.51,404.06,541.43,396.56,565.48z"/>
		<path class="st3" d="M864.72,235.21c-1.98,3.18-3.74,5.88-5.37,8.66c-8.98,15.31-11.29,32.48-13.67,49.62
			c-9.38,67.66-11.95,135.7-11.11,203.91c0.23,18.7,0.4,37.52,2.6,56.04c1.22,10.28,6.44,20.13,10.18,30.05
			c0.97,2.58,3.07,4.9-0.54,6.67c-15.04,7.35-30.4,14.12-47.56,13.55c-17.28-0.57-29.12-10.2-33.88-27.33
			c-5.14-18.46-4.89-37.52-4.38-56.43c0.85-31.67,2.32-63.32,3.62-94.97c0.56-13.57,1.4-27.12,1.99-40.69
			c0.1-2.29-0.46-4.6-2.11-6.94c-4.27,16.41-8.42,32.85-12.84,49.22c-10.68,39.48-21.43,78.93-32.31,118.36
			c-1.52,5.52-3.79,10.86-6.01,16.15c-1.91,4.54-5.81,6.77-10.49,5.63c-10.92-2.68-21.89-5.39-32.51-9.07
			c-9.03-3.13-13.41-10.54-13.86-20.05c-1.27-26.72-2.26-53.45-3.76-80.15c-0.73-12.92-2.27-25.79-3.65-38.66
			c-0.18-1.65-1.65-3.15-2.53-4.72c-0.8,1.63-2.14,3.21-2.31,4.9c-5.94,59.39-12.18,118.75-26.3,176.88
			c-8.65,35.63-19.36,70.66-39.49,101.86c-4.77,7.39-10.31,14.5-16.56,20.65c-15.58,15.33-34.86,19.47-55.41,13.85
			c-25.34-6.92-50.25-15.4-75.34-23.22c-2.51-0.78-5-1.6-8.41-2.69c2.24-0.94,3.66-1.62,5.14-2.15
			c23.8-8.38,40.06-26.03,55.28-44.94c28.93-35.93,48.83-76.96,67.04-118.94c31.86-73.45,56.15-149.22,69.91-228.2
			c1.34-7.67,2.04-15.51,2.24-23.29c0.25-9.69,4.41-14.52,14.17-14.14c10.36,0.4,20.16,6.34,23.07,17.6
			c14.38,55.54,28.95,111.01,38.24,167.7c2.33,14.2,4.64,28.41,8.24,43.12c1.08-2.36,2.47-4.63,3.18-7.1
			c16.24-56.69,32.11-113.49,48.71-170.08c9.71-33.09,20.49-65.87,31.05-98.71c1.55-4.82,4.27-9.36,6.99-13.69
			c4.9-7.81,9.4-9.39,17.7-5.27c15.46,7.67,30.64,15.92,45.92,23.96C861.14,232.99,862.64,233.97,864.72,235.21z"/>
		<path class="st4" d="M396.56,565.48c7.5-24.06,15.49-47.98,22.41-72.2c16.71-58.43,32.6-117.1,49.57-175.46
			c4.03-13.87,10.4-27.19,16.87-40.17c5.16-10.34,9.86-11.18,20.09-5.98c15.37,7.82,30.67,15.75,45.88,23.86
			c1.16,0.62,2.36,3.81,1.82,4.56c-14.36,19.82-15.67,43.41-18.93,66.27c-8.15,57.17-10.23,114.72-9.93,172.4
			c0.06,12.12,0.43,24.34-0.88,36.34c-1.76,16.18-8.69,30.79-17.55,44.3c-8.46,12.89-17.41,25.46-26.32,38.05
			c-4.16,5.88-7.17,5.93-12.49,0.95c-7.69-7.2-11.51-16.36-13.41-26.47c-4.51-23.9-2.72-47.97-1.82-72.01
			c1.17-31.25,2.51-62.49,3.64-93.74c0.29-8.11,0.04-16.25,0.04-24.37c-0.5-0.07-0.99-0.13-1.49-0.2
			c-2.19,8.27-4.31,16.57-6.57,24.82c-13.54,49.52-27.11,99.03-40.68,148.54c-0.22,0.79-0.48,1.57-0.77,2.33
			c-4.55,12.15-8.04,14.28-20.48,11.09c-7.93-2.03-15.74-4.67-23.37-7.64c-12-4.65-16.73-14.07-17.15-26.63
			c-1.06-31.64-2.39-63.26-3.92-94.88c-0.45-9.23-1.88-18.42-3.02-27.61c-0.22-1.81-1.21-3.52-3.3-5.02
			c-0.74,10.57-1.2,21.18-2.27,31.72c-7.07,70.05-16.11,139.76-38.3,207.01c-7.5,22.74-17.73,44.2-31.87,63.65
			c-11.53,15.85-25.91,27.52-46.49,27.27c-10.56-0.13-21.14-2.49-31.62-4.34c-6.65-1.18-13.11-3.4-19.7-4.97
			c-13.91-3.31-21.46-13.79-28.09-25.12c-0.66-1.13,0.64-4.5,2.01-5.54c35.33-27.01,57.4-63.98,77.31-102.57
			c46.4-89.95,77.55-185.02,95.22-284.57c1.1-6.21,1.1-12.68,1.08-19.02c-0.02-6.82,2.17-10.16,8.93-12.02
			c12.22-3.36,25.04,3.85,28.32,16.1c16.92,63.17,31.95,126.75,42.22,191.38c1.03,6.48,1.77,13.01,2.65,19.51
			C394.99,565.25,395.77,565.36,396.56,565.48z"/>
	</g>
</g>
</svg>
