<svg xmlns="http://www.w3.org/2000/svg" xmlns:xlink="http://www.w3.org/1999/xlink" viewBox="0 0 32 32">
  <defs>
    <clipPath id="a">
      <path d="M6 1030.2h16.6v13.8H6z" />
    </clipPath>
    <g id="def-cookie">
        <circle cx="16" cy="16" r="15" fill="#c87137" stroke="#784421" stroke-width="2"/>
        <g fill="#784421">
          <circle cx="8.2" cy="11" r="1.7"/>
          <circle cx="7.5" cy="18" r="2.5"/>
          <circle cx="19" cy="17" r="2.9"/>
          <circle cx="16.4" cy="9" r="1.7"/>
          <circle cx="21.3" cy="26" r="1.7"/>
          <circle cx="24.7" cy="12" r="1.7"/>
          <circle cx="13.4" cy="23" r="1.2"/>
        </g>
    </g>
  </defs>
  <path fill="#f0f0f0" stroke="#4d4d4d" stroke-width="1.2" d="M.6 1.6h23.8v29.7H.6z" stroke-linejoin="round"/>
  <path fill="none" stroke="#4d4d4d" stroke-width="1.2" d="M.5 7h24M.5 28h24"/>
  <g clip-path="url(#a)" transform="translate(-4.1 -1179.89) scale(1.1543)">
    <use xlink:href="#def-cookie" transform="translate(4.824 1037.886) scale(.2517)"/>
    <use xlink:href="#def-cookie" transform="rotate(-127.465 265.116 514.626) scale(.2687)"/>
    <use xlink:href="#def-cookie" transform="translate(14.91 1032.3) scale(.2812)"/>
    <use xlink:href="#def-cookie" transform="rotate(37.26 -1516.986 526.976) scale(.3753)"/>
    <use xlink:href="#def-cookie" transform="rotate(-26.318 2232.364 490.56) scale(.2518)"/>
    <use xlink:href="#def-cookie" transform="translate(9.94 1037.052) scale(.2517)"/>
    <use xlink:href="#def-cookie" transform="rotate(48.546 -1142.43 527.982) scale(.2098)"/>
  </g>
  <g stroke="#4d4d4d" stroke-linejoin="round">
      <path fill="#ffee8c" fill-opacity=".2" stroke-width="1.2" d="M3 9.3h19v16H3z"/>
      <path fill="none" stroke-width="1.2" d="M.5 7h24M3 .6h7m5 0h7m-4 29h5"/>
      <g fill="none" stroke-width=".6" transform="translate(-26.878 -961.996) scale(.9427)">
        <circle cx="32" cy="1025" r="1.4"/>
        <path stroke-width=".5" d="M30.7 1025h2.6"/>
      </g>
      <g fill="none" stroke-width=".6" transform="rotate(-36.862 -1424.91 520.467) scale(.9427)">
        <circle cx="32" cy="1025" r="1.4"/>
        <path stroke-width=".5" d="M30.7 1025h2.6"/>
      </g>
      <g fill="none" stroke-width=".6" transform="rotate(-82.774 -525.688 496.636) scale(.9427)">
        <circle cx="32" cy="1025" r="1.4"/>
        <path stroke-width=".5" d="M30.7 1025h2.6"/>
      </g>
      <path fill="none" stroke-width="1.2" d="M22 5.2h1.3m-2.8 0h1"/>
  </g>
</svg>
